Coordinates
version=1
nRows=25
nColumns=23
inDegrees=yes

Units are S.I. units (second, meters, Newtons, ...)
If the header above contains a line with 'inDegrees', this indicates whether rotational values are in degrees (yes) or radians (no).

endheader
time	pelvis_tilt	pelvis_list	pelvis_rotation	pelvis_tx	pelvis_ty	pelvis_tz	hip_flexion_r	hip_adduction_r	hip_rotation_r	knee_angle_r	knee_angle_r_beta	ankle_angle_r	subtalar_angle_r	mtp_angle_r	hip_flexion_l	hip_adduction_l	hip_rotation_l	knee_angle_l	knee_angle_l_beta	ankle_angle_l	subtalar_angle_l	mtp_angle_l
      7.50000000	    -13.64407062	      0.13883247	      7.45515425	      2.28182810	      0.97502016	      1.03449351	      3.08907765	     -0.23880290	    -11.59920866	     93.13147247	      1.62545083	    -13.59324202	    -11.69153235	      0.00000000	     42.97165138	      5.08241265	     -2.52464184	     32.73386528	      0.57131373	      3.24858358	     -3.39825498	      0.00000000
      7.50666667	    -13.61537938	      0.38410602	      7.92062137	      2.27885468	      0.96974820	      1.03381762	      5.19521753	     -0.94855530	    -11.83336033	     97.31928909	      1.69854202	    -12.74952694	    -11.10498054	      0.00000000	     43.26747835	      5.50018893	     -2.06226082	     36.46200908	      0.63638211	      4.48284715	     -4.26701957	      0.00000000
      7.51333333	    -13.60352698	      0.68794193	      8.33597941	      2.27583255	      0.96486132	      1.03308692	      7.40349697	     -1.80228551	    -11.95265235	    101.22020248	      1.76662580	    -11.81767530	    -10.42315202	      0.00000000	     43.33781118	      5.98474017	     -1.54161023	     39.87920531	      0.69602344	      6.24540575	     -4.92491310	      0.00000000
      7.52000000	    -13.61914332	      1.08369774	      8.65011076	      2.27284434	      0.96054145	      1.03237207	      9.73700054	     -2.81941345	    -11.87447559	    104.80362680	      1.82916836	    -10.85715885	     -9.78877672	      0.00000000	     43.12282219	      6.50643428	     -1.09024326	     42.83348331	      0.74758531	      8.37909567	     -5.35864340	      0.00000000
      7.52666667	    -13.92406271	      1.38070512	      8.86004543	      2.26982951	      0.95649387	      1.03180951	     12.57168371	     -3.76614408	    -11.58685488	    108.07899492	      1.88633431	     -9.81775289	     -8.81632803	      0.00000000	     42.95271738	      6.87341435	     -0.75250436	     45.36552303	      0.79177774	     10.67884300	     -5.28798726	      0.00000000
      7.53333333	    -14.10295099	      1.72639683	      8.96969221	      2.26701246	      0.95343282	      1.03129515	     15.37681246	     -4.76050825	    -11.10887595	    110.92655333	      1.93603358	     -8.89525068	     -7.91858057	      0.00000000	     42.28717926	      7.20816343	     -0.46579029	     47.31617549	      0.82582305	     13.04993160	     -5.13793633	      0.00000000
      7.54000000	    -14.35681616	      2.04953109	      8.92137654	      2.26433797	      0.95112760	      1.03093801	     18.44902679	     -5.67229835	    -10.38020116	    113.36699681	      1.97862736	     -7.97098322	     -6.84264175	      0.00000000	     41.37218672	      7.43212796	     -0.26459401	     48.71770202	      0.85028430	     15.45777999	     -4.75121018	      0.00000000
      7.54666667	    -14.52617271	      2.31562268	      8.73256354	      2.26195210	      0.94973446	      1.03076037	     21.55429957	     -6.42282243	     -9.49450733	    115.32301747	      2.01276636	     -7.15564275	     -5.79085612	      0.00000000	     40.07333955	      7.46706526	     -0.20178876	     49.61521527	      0.86594887	     17.71994128	     -4.19699569	      0.00000000
      7.55333333	    -14.58938548	      2.48122455	      8.40891523	      2.25992047	      0.94922766	      1.03078707	     24.64454444	     -6.91195766	     -8.51869607	    116.76435494	      2.03792244	     -6.44372610	     -4.79488736	      0.00000000	     38.39773466	      7.28817447	     -0.23586862	     50.05918073	      0.87369752	     19.87217676	     -3.43856576	      0.00000000
      7.56000000	    -14.55277491	      2.63250363	      7.97808485	      2.25828624	      0.94960648	      1.03090818	     27.65864113	     -7.25822171	     -7.49875999	    117.69704811	      2.05420101	     -5.77885235	     -3.82992906	      0.00000000	     36.33425410	      7.03049605	     -0.35133447	     49.99772103	      0.87262485	     21.68772797	     -2.70653619	      0.00000000
      7.56666667	    -14.45693380	      2.70754671	      7.44604560	      2.25706201	      0.95071954	      1.03114146	     30.59098868	     -7.36971250	     -6.50452253	    118.11404807	      2.06147903	     -5.14562426	     -2.96958846	      0.00000000	     33.97966525	      6.64714103	     -0.55173951	     49.50854747	      0.86408716	     23.16238820	     -1.91774952	      0.00000000
      7.57333333	    -14.33240068	      2.66943081	      6.84114822	      2.25623714	      0.95245970	      1.03149892	     33.42436568	     -7.21476853	     -5.62052453	    118.01587779	      2.05976564	     -4.56867478	     -2.40197793	      0.00000000	     31.41515856	      6.13126431	     -0.79632470	     48.65471780	      0.84918502	     24.28861766	     -1.30765804	      0.00000000
      7.58000000	    -14.14596309	      2.51085665	      6.21355920	      2.25592072	      0.95476433	      1.03196495	     36.03382550	     -6.83938129	     -4.94878948	    117.42716142	      2.04949060	     -3.85261946	     -1.75134026	      0.00000000	     28.64807062	      5.41509975	     -1.26807458	     47.52661249	      0.82949587	     25.10632331	      0.00399130	      0.00000000
      7.58666667	    -14.15521923	      2.26875523	      5.49406417	      2.25582250	      0.95731047	      1.03250744	     38.73935907	     -6.22304759	     -4.34072146	    116.41173789	      2.03176811	     -3.20090622	     -1.58160256	      0.00000000	     25.95326734	      4.70110222	     -1.70096856	     46.05310135	      0.80377825	     25.29474244	      0.65257915	      0.00000000
      7.59333333	    -13.96979850	      1.94983299	      4.81068196	      2.25636358	      0.96059540	      1.03307661	     40.95251920	     -5.52229060	     -4.02209278	    114.90245293	      2.00542612	     -2.49110569	     -1.55361782	      0.00000000	     22.93574509	      3.85807862	     -2.33719884	     44.34197765	      0.77391351	     25.22421144	      1.89634527	      0.00000000
      7.60000000	    -14.00391597	      1.50947667	      4.09647017	      2.25713962	      0.96394146	      1.03369209	     43.20216856	     -4.60581380	     -3.84421728	    113.00495508	      1.97230854	     -1.77483093	     -1.88011768	      0.00000000	     20.10882937	      2.95507564	     -3.02991609	     42.44033476	      0.74072358	     24.56221556	      2.82963907	      0.00000000
      7.60666667	    -13.91734460	      0.98110949	      3.40725438	      2.25840228	      0.96781862	      1.03429702	     45.03650932	     -3.59365955	     -3.87807885	    110.69416754	      1.93197769	     -1.03752939	     -2.52051508	      0.00000000	     17.08200999	      1.98794725	     -3.82209584	     40.32483974	      0.70380122	     23.40846673	      3.91868974	      0.00000000
      7.61333333	    -14.18388071	      0.40325143	      2.73698621	      2.25979972	      0.97146832	      1.03482625	     47.04642453	     -2.54577555	     -4.02217953	    108.07543830	      1.88627224	     -0.28534958	     -3.28143400	      0.00000000	     14.44191171	      1.06608074	     -4.62893302	     38.09986102	      0.66496802	     21.54488257	      4.71284937	      0.00000000
      7.62000000	    -13.86862393	     -0.18595389	      2.07122801	      2.26193750	      0.97623292	      1.03532481	     48.07981701	     -1.46726240	     -4.27229017	    105.03182671	      1.83315120	      0.31627830	     -4.57101308	      0.00000000	     11.04548499	      0.16719314	     -5.54460742	     35.54075970	      0.62030328	     19.28903952	      5.62867193	      0.00000000
      7.62666667	    -13.82052111	     -0.80002579	      1.44448206	      2.26418994	      0.98076684	      1.03569531	     49.19496775	     -0.40210864	     -4.57754184	    101.71719956	      1.77530004	      0.88399926	     -5.95957930	      0.00000000	      7.97800979	     -0.64745580	     -6.43050482	     32.91671603	      0.57450507	     16.38515457	      6.29755242	      0.00000000
      7.63333333	    -13.71379388	     -1.44711875	      0.90467216	      2.26669654	      0.98549170	      1.03587619	     49.98983046	      0.59133234	     -5.00471826	     98.09979015	      1.71216433	      1.39203954	     -7.46184169	      0.00000000	      4.87698748	     -1.39923594	     -7.23695735	     30.21118823	      0.52728471	     12.96103632	      6.76465879	      0.00000000
      7.64000000	    -13.56985603	     -2.08450909	      0.44586542	      2.26940148	      0.99031748	      1.03591428	     50.51213240	      1.50234309	     -5.47813425	     94.20874809	      1.64425284	      1.81169960	     -9.05543888	      0.00000000	      1.79233859	     -2.04046398	     -7.88797671	     27.47180010	      0.47947336	      9.17472521	      6.95612632	      0.00000000
      7.64666667	    -13.51932084	     -2.71253350	      0.02206915	      2.27218306	      0.99495209	      1.03590251	     50.93524060	      2.38281976	     -5.94288172	     90.06671842	      1.57196078	      2.11214154	    -10.71946199	      0.00000000	     -1.07179218	     -2.63526727	     -8.56231533	     24.87501568	      0.43415093	      5.19633035	      7.13067167	      0.00000000
      7.65333333	    -13.35244339	     -3.35685715	     -0.25374309	      2.27503095	      0.99967556	      1.03568204	     51.00547226	      3.11168907	     -6.53827914	     85.66166913	      1.49507817	      2.39735740	    -12.24087701	      0.00000000	     -3.91058470	     -3.18910787	     -8.97878086	     22.45874299	      0.39197901	      1.16814877	      6.96573653	      0.00000000
      7.66000000	    -13.22614446	     -3.95592131	     -0.41299670	      2.27783895	      1.00417938	      1.03531512	     50.93035943	      3.69488856	     -7.17204820	     81.03159399	      1.41426811	      2.66210823	    -13.54810533	      0.00000000	     -6.50266445	     -3.67675561	     -9.20236375	     20.36981223	      0.35552029	     -2.70423484	      6.50624488	      0.00000000
